<svg xmlns="http://www.w3.org/2000/svg" xmlns:xlink="http://www.w3.org/1999/xlink" width="500" zoomAndPan="magnify" viewBox="0 0 375 374.999991" height="500" preserveAspectRatio="xMidYMid meet" version="1.0"><defs><g/><clipPath id="7a9a4384c0"><path d="M 97.09375 66.960938 L 277.84375 66.960938 L 277.84375 247.710938 L 97.09375 247.710938 Z M 97.09375 66.960938 " clip-rule="nonzero"/></clipPath><clipPath id="c5ee05f1d1"><path d="M 122 92 L 253 92 L 253 222 L 122 222 Z M 122 92 " clip-rule="nonzero"/></clipPath><clipPath id="842b806177"><path d="M 98.246094 137.316406 L 207.832031 67.84375 L 276.902344 176.792969 L 167.320312 246.265625 Z M 98.246094 137.316406 " clip-rule="nonzero"/></clipPath><clipPath id="5ca381d56b"><path d="M 98.246094 137.316406 L 207.832031 67.84375 L 276.902344 176.792969 L 167.320312 246.265625 Z M 98.246094 137.316406 " clip-rule="nonzero"/></clipPath><clipPath id="9806a6b00f"><path d="M 143 113 L 232 113 L 232 202 L 143 202 Z M 143 113 " clip-rule="nonzero"/></clipPath><clipPath id="814c9da5e6"><path d="M 141.09375 198.988281 L 145.832031 110.613281 L 234.207031 115.351562 L 229.46875 203.726562 Z M 141.09375 198.988281 " clip-rule="nonzero"/></clipPath><clipPath id="3ba9488c64"><path d="M 141.09375 198.988281 L 145.832031 110.613281 L 234.207031 115.351562 L 229.46875 203.726562 Z M 141.09375 198.988281 " clip-rule="nonzero"/></clipPath><clipPath id="a84ec0faae"><path d="M 160.234375 129.988281 L 214.765625 129.988281 L 214.765625 184.519531 L 160.234375 184.519531 Z M 160.234375 129.988281 " clip-rule="nonzero"/></clipPath><clipPath id="d79fb6ede5"><path d="M 187.5 129.988281 C 172.441406 129.988281 160.234375 142.195312 160.234375 157.253906 C 160.234375 172.3125 172.441406 184.519531 187.5 184.519531 C 202.558594 184.519531 214.765625 172.3125 214.765625 157.253906 C 214.765625 142.195312 202.558594 129.988281 187.5 129.988281 Z M 187.5 129.988281 " clip-rule="nonzero"/></clipPath></defs><rect x="-37.5" width="450" fill="#ffffff" y="-37.499999" height="449.999989" fill-opacity="1"/><rect x="-37.5" width="450" fill="#0d1216" y="-37.499999" height="449.999989" fill-opacity="1"/><g clip-path="url(#7a9a4384c0)"><path fill="#ffffff" d="M 192.265625 228.316406 C 190.691406 228.421875 189.101562 228.476562 187.5 228.476562 C 185.898438 228.476562 184.308594 228.421875 182.734375 228.316406 C 160.078125 226.816406 140.277344 214.679688 128.300781 196.867188 L 111.734375 206.433594 C 115.148438 211.6875 119.121094 216.578125 123.613281 221.074219 C 131.910156 229.367188 141.570312 235.878906 152.328125 240.429688 C 162.015625 244.527344 172.226562 246.871094 182.734375 247.410156 C 184.316406 247.496094 185.90625 247.535156 187.5 247.535156 C 189.09375 247.535156 190.683594 247.496094 192.265625 247.410156 C 202.777344 246.871094 212.984375 244.527344 222.671875 240.429688 C 233.429688 235.878906 243.089844 229.367188 251.386719 221.074219 C 255.878906 216.578125 259.847656 211.6875 263.269531 206.433594 L 246.699219 196.867188 C 234.71875 214.679688 214.921875 226.816406 192.265625 228.316406 Z M 270.746094 122.015625 C 269.910156 120.035156 269.003906 118.097656 268.035156 116.195312 L 268.035156 116.191406 C 266.589844 113.355469 265 110.601562 263.269531 107.941406 C 259.847656 102.6875 255.878906 97.796875 251.386719 93.300781 C 243.089844 85.007812 233.429688 78.492188 222.671875 73.941406 C 212.984375 69.84375 202.777344 67.503906 192.265625 66.960938 L 192.265625 86.058594 C 214.921875 87.558594 234.71875 99.695312 246.699219 117.507812 C 248.46875 120.136719 250.066406 122.890625 251.476562 125.753906 C 256.160156 135.242188 258.789062 145.910156 258.789062 157.1875 C 258.789062 168.460938 256.160156 179.132812 251.476562 188.621094 L 268.035156 198.179688 C 269.003906 196.277344 269.910156 194.335938 270.746094 192.359375 C 275.457031 181.210938 277.847656 169.378906 277.847656 157.1875 C 277.847656 144.996094 275.457031 133.160156 270.746094 122.015625 Z M 152.328125 73.941406 C 141.570312 78.492188 131.910156 85.007812 123.613281 93.300781 C 119.121094 97.796875 115.148438 102.6875 111.734375 107.941406 C 110 110.601562 108.410156 113.355469 106.96875 116.191406 L 106.96875 116.195312 C 105.996094 118.097656 105.09375 120.035156 104.253906 122.015625 C 99.542969 133.160156 97.152344 144.996094 97.152344 157.1875 C 97.152344 169.378906 99.542969 181.210938 104.253906 192.359375 C 105.09375 194.335938 105.996094 196.277344 106.96875 198.179688 L 123.523438 188.621094 C 118.839844 179.132812 116.210938 168.460938 116.210938 157.1875 C 116.210938 145.910156 118.839844 135.242188 123.523438 125.753906 C 124.933594 122.890625 126.53125 120.136719 128.300781 117.507812 C 140.277344 99.695312 160.078125 87.558594 182.734375 86.058594 L 182.734375 66.960938 C 172.226562 67.503906 162.015625 69.84375 152.328125 73.941406 " fill-opacity="1" fill-rule="nonzero"/></g><g fill="#ffffff" fill-opacity="1"><g transform="translate(109.478973, 281.52836)"><g><path d="M 7.683594 -16.449219 L 1.152344 -16.449219 L 1.152344 0 L 7.683594 0 C 13.113281 0 15.835938 -4.089844 15.835938 -8.199219 C 15.835938 -12.3125 13.113281 -16.449219 7.683594 -16.449219 Z M 7.683594 -3.832031 L 5.144531 -3.832031 L 5.144531 -12.640625 L 7.683594 -12.640625 C 10.457031 -12.640625 11.867188 -10.363281 11.867188 -8.199219 C 11.867188 -6.039062 10.457031 -3.832031 7.683594 -3.832031 Z M 7.683594 -3.832031 "/></g></g></g><g fill="#ffffff" fill-opacity="1"><g transform="translate(127.829778, 281.52836)"><g><path d="M 6.765625 -16.636719 L 0.1875 0 L 4.488281 0 L 5.40625 -2.421875 L 11.019531 -2.421875 L 11.9375 0 L 16.472656 0 L 9.632812 -16.636719 Z M 8.222656 -10.011719 L 9.492188 -6.4375 L 9.585938 -6.15625 L 6.859375 -6.15625 L 7.003906 -6.53125 Z M 8.222656 -10.011719 "/></g></g></g><g fill="#ffffff" fill-opacity="1"><g transform="translate(146.086603, 281.52836)"><g><path d="M 13.652344 -16.636719 L 0.777344 -16.636719 L 0.777344 -12.875 L 5.214844 -12.875 L 5.214844 0 L 9.234375 0 L 9.234375 -12.875 L 13.652344 -12.875 Z M 13.652344 -16.636719 "/></g></g></g><g fill="#ffffff" fill-opacity="1"><g transform="translate(162.628199, 281.52836)"><g><path d="M 6.765625 -16.636719 L 0.1875 0 L 4.488281 0 L 5.40625 -2.421875 L 11.019531 -2.421875 L 11.9375 0 L 16.472656 0 L 9.632812 -16.636719 Z M 8.222656 -10.011719 L 9.492188 -6.4375 L 9.585938 -6.15625 L 6.859375 -6.15625 L 7.003906 -6.53125 Z M 8.222656 -10.011719 "/></g></g></g><g fill="#ffffff" fill-opacity="1"><g transform="translate(180.885026, 281.52836)"><g><path d="M 9.164062 -12.757812 C 10.667969 -12.757812 12.570312 -12.101562 13.160156 -9.75 L 17.386719 -9.75 C 16.707031 -14.921875 12.359375 -16.683594 9.164062 -16.683594 C 4.511719 -16.683594 0.847656 -13.136719 0.847656 -8.199219 C 0.847656 -3.289062 4.417969 0.257812 9.164062 0.257812 C 12.242188 0.257812 15.695312 -1.832031 16.847656 -4.980469 C 17.105469 -5.59375 17.433594 -6.789062 17.433594 -8.695312 L 7.378906 -8.695312 L 7.378906 -5.097656 L 12.40625 -5.097656 C 11.539062 -3.925781 10.269531 -3.570312 9.164062 -3.570312 C 6.742188 -3.570312 4.910156 -5.40625 4.910156 -8.199219 C 4.910156 -10.855469 6.742188 -12.757812 9.164062 -12.757812 Z M 9.164062 -12.757812 "/></g></g></g><g fill="#ffffff" fill-opacity="1"><g transform="translate(201.068534, 281.52836)"><g><path d="M 7.566406 -16.589844 L 1.175781 -16.589844 L 1.175781 0 L 5.167969 0 L 5.167969 -5.570312 L 5.828125 -5.570312 L 9.257812 0 L 13.535156 0 L 13.535156 -0.75 L 10.011719 -5.96875 C 12.171875 -7.003906 13.230469 -9.117188 13.230469 -11.113281 C 13.230469 -13.839844 11.324219 -16.589844 7.566406 -16.589844 Z M 7.472656 -9.210938 L 5.167969 -9.210938 L 5.167969 -12.734375 L 7.472656 -12.734375 C 8.695312 -12.734375 9.304688 -11.820312 9.304688 -10.949219 C 9.304688 -10.105469 8.671875 -9.210938 7.472656 -9.210938 Z M 7.472656 -9.210938 "/></g></g></g><g fill="#ffffff" fill-opacity="1"><g transform="translate(217.163704, 281.52836)"><g><path d="M 6.765625 -16.636719 L 0.1875 0 L 4.488281 0 L 5.40625 -2.421875 L 11.019531 -2.421875 L 11.9375 0 L 16.472656 0 L 9.632812 -16.636719 Z M 8.222656 -10.011719 L 9.492188 -6.4375 L 9.585938 -6.15625 L 6.859375 -6.15625 L 7.003906 -6.53125 Z M 8.222656 -10.011719 "/></g></g></g><g fill="#ffffff" fill-opacity="1"><g transform="translate(235.420532, 281.52836)"><g><path d="M 0.703125 0 L 13.042969 0 L 13.042969 -3.710938 L 6.015625 -3.710938 L 12.945312 -13.652344 L 12.945312 -16.589844 L 0.703125 -16.589844 L 0.703125 -12.898438 L 7.800781 -12.898438 L 0.703125 -2.820312 Z M 0.703125 0 "/></g></g></g><g fill="#ffffff" fill-opacity="1"><g transform="translate(251.233759, 281.52836)"><g><path d="M 7.566406 -16.589844 L 1.175781 -16.589844 L 1.175781 0 L 5.167969 0 L 5.167969 -5.570312 L 5.828125 -5.570312 L 9.257812 0 L 13.535156 0 L 13.535156 -0.75 L 10.011719 -5.96875 C 12.171875 -7.003906 13.230469 -9.117188 13.230469 -11.113281 C 13.230469 -13.839844 11.324219 -16.589844 7.566406 -16.589844 Z M 7.472656 -9.210938 L 5.167969 -9.210938 L 5.167969 -12.734375 L 7.472656 -12.734375 C 8.695312 -12.734375 9.304688 -11.820312 9.304688 -10.949219 C 9.304688 -10.105469 8.671875 -9.210938 7.472656 -9.210938 Z M 7.472656 -9.210938 "/></g></g></g><g clip-path="url(#c5ee05f1d1)"><g clip-path="url(#842b806177)"><g clip-path="url(#5ca381d56b)"><path fill="#a6a6a6" d="M 217.613281 198.386719 C 216.703125 199.054688 215.761719 199.695312 214.796875 200.308594 C 213.828125 200.921875 212.847656 201.5 211.855469 202.035156 C 197.582031 209.8125 180.964844 210.066406 166.894531 203.886719 L 160.546875 216.019531 C 164.625 217.886719 168.902344 219.320312 173.339844 220.316406 C 181.53125 222.148438 189.871094 222.386719 198.117188 221.011719 C 205.542969 219.777344 212.613281 217.28125 219.171875 213.578125 C 220.160156 213.023438 221.136719 212.4375 222.101562 211.828125 C 223.0625 211.21875 224.007812 210.585938 224.933594 209.925781 C 231.078125 205.574219 236.351562 200.246094 240.636719 194.054688 C 245.398438 187.179688 248.742188 179.539062 250.578125 171.347656 C 251.570312 166.910156 252.097656 162.429688 252.148438 157.945312 L 238.46875 158.511719 C 238.054688 173.871094 230.738281 188.792969 217.613281 198.386719 Z M 224.316406 104.046875 C 223.054688 103.171875 221.761719 102.347656 220.449219 101.566406 L 220.445312 101.566406 C 218.484375 100.40625 216.46875 99.351562 214.402344 98.40625 C 210.324219 96.539062 206.046875 95.105469 201.609375 94.109375 C 193.417969 92.273438 185.082031 92.039062 176.832031 93.414062 C 169.40625 94.648438 162.335938 97.144531 155.777344 100.847656 L 163.09375 112.390625 C 177.367188 104.613281 193.984375 104.363281 208.050781 110.539062 C 210.128906 111.449219 212.152344 112.503906 214.101562 113.691406 C 220.566406 117.632812 226.246094 123.074219 230.570312 129.890625 C 234.890625 136.707031 237.390625 144.167969 238.195312 151.695312 L 251.867188 151.128906 C 251.726562 149.605469 251.527344 148.085938 251.277344 146.570312 C 249.851562 138.027344 246.761719 129.957031 242.089844 122.585938 C 237.417969 115.21875 231.4375 108.980469 224.316406 104.046875 Z M 134.3125 120.371094 C 129.550781 127.246094 126.207031 134.886719 124.371094 143.078125 C 123.378906 147.515625 122.851562 151.996094 122.800781 156.480469 C 122.769531 158.753906 122.867188 161.027344 123.082031 163.296875 C 123.226562 164.820312 123.421875 166.335938 123.675781 167.855469 C 125.097656 176.398438 128.1875 184.46875 132.859375 191.839844 C 137.53125 199.207031 143.511719 205.445312 150.632812 210.375 C 151.898438 211.253906 153.1875 212.078125 154.503906 212.855469 L 160.847656 200.734375 C 154.382812 196.792969 148.699219 191.351562 144.378906 184.535156 C 140.058594 177.71875 137.558594 170.261719 136.753906 162.730469 C 136.511719 160.457031 136.417969 158.183594 136.480469 155.914062 C 136.894531 140.554688 144.210938 125.632812 157.332031 116.042969 L 150.015625 104.5 C 143.871094 108.855469 138.597656 114.179688 134.3125 120.371094 " fill-opacity="1" fill-rule="nonzero"/></g></g></g><g clip-path="url(#9806a6b00f)"><g clip-path="url(#814c9da5e6)"><g clip-path="url(#3ba9488c64)"><path fill="#545454" d="M 222.289062 156.785156 C 222.300781 157.554688 222.285156 158.332031 222.242188 159.113281 C 222.199219 159.894531 222.132812 160.667969 222.039062 161.433594 C 220.714844 172.445312 214.277344 181.785156 205.273438 187.160156 L 209.507812 195.492188 C 212.160156 193.964844 214.652344 192.152344 216.960938 190.082031 C 221.222656 186.25 224.652344 181.707031 227.152344 176.578125 C 229.40625 171.960938 230.816406 167.042969 231.351562 161.929688 C 231.433594 161.160156 231.496094 160.386719 231.539062 159.609375 C 231.582031 158.832031 231.601562 158.058594 231.601562 157.28125 C 231.613281 152.140625 230.738281 147.101562 228.992188 142.269531 C 227.054688 136.902344 224.128906 132.019531 220.300781 127.753906 C 218.226562 125.445312 215.945312 123.382812 213.472656 121.578125 L 208.371094 129.410156 C 216.746094 135.71875 222.148438 145.691406 222.289062 156.785156 Z M 172.492188 115.722656 C 171.503906 116.078125 170.53125 116.46875 169.578125 116.890625 C 168.15625 117.523438 166.769531 118.226562 165.429688 119 C 162.777344 120.53125 160.285156 122.339844 157.976562 124.414062 C 153.714844 128.242188 150.285156 132.785156 147.785156 137.914062 C 145.53125 142.53125 144.121094 147.449219 143.582031 152.5625 L 152.898438 153.0625 C 154.222656 142.050781 160.660156 132.710938 169.660156 127.332031 C 170.992188 126.539062 172.375 125.832031 173.808594 125.21875 C 178.558594 123.183594 183.832031 122.179688 189.332031 122.472656 C 194.832031 122.769531 199.96875 124.332031 204.476562 126.863281 L 209.570312 119.035156 C 208.667969 118.511719 207.746094 118.019531 206.800781 117.5625 C 201.488281 114.972656 195.777344 113.496094 189.832031 113.175781 C 183.882812 112.859375 178.050781 113.714844 172.492188 115.722656 Z M 145.945312 172.226562 C 147.882812 177.59375 150.808594 182.476562 154.636719 186.738281 C 156.710938 189.046875 158.992188 191.113281 161.464844 192.917969 C 162.71875 193.832031 164.019531 194.679688 165.367188 195.457031 C 166.269531 195.980469 167.191406 196.472656 168.136719 196.933594 C 173.449219 199.523438 179.160156 201 185.105469 201.316406 C 191.054688 201.636719 196.886719 200.777344 202.445312 198.773438 C 203.433594 198.414062 204.402344 198.023438 205.359375 197.601562 L 201.128906 189.277344 C 196.378906 191.3125 191.105469 192.316406 185.605469 192.019531 C 180.105469 191.726562 174.96875 190.164062 170.460938 187.632812 C 169.101562 186.867188 167.800781 186.019531 166.566406 185.085938 C 158.191406 178.777344 152.789062 168.800781 152.648438 157.710938 L 143.335938 157.210938 C 143.324219 162.351562 144.199219 167.394531 145.945312 172.226562 " fill-opacity="1" fill-rule="nonzero"/></g></g></g><g clip-path="url(#a84ec0faae)"><g clip-path="url(#d79fb6ede5)"><path fill="#737373" d="M 160.234375 129.988281 L 214.765625 129.988281 L 214.765625 184.519531 L 160.234375 184.519531 Z M 160.234375 129.988281 " fill-opacity="1" fill-rule="nonzero"/></g></g></svg>